<svg xmlns="http://www.w3.org/2000/svg" width="247.683" height="184.281" viewBox="0 0 247.683 184.281"><defs><style>.a{fill:#ebebeb;}.b{fill:#e0e0e0;}.c{fill:#f0f0f0;}.d{fill:#fafafa;}.e{fill:#f5f5f5;}.f,.p,.v{opacity:0.2;}.g,.n,.r,.v,.w{fill:#fff;}.h{fill:#e6e6e6;}.i{fill:#5e81d3;}.j{opacity:0.5;}.k{fill:#cb7a63;}.l{fill:#263238;}.m{opacity:0.6;}.n{opacity:0.9;}.o,.r{opacity:0.4;}.q{fill:#a02724;}.s{fill:#466bc1;stroke:#466bc1;stroke-linejoin:bevel;}.t{opacity:0.3;}.u{opacity:0.8;}.w,.x{stroke:#fff;}.aa,.x{fill:none;}.y{fill:#415992;stroke:#415992;}.z{stroke:none;}</style></defs><g transform="translate(0 -55)"><g transform="translate(0 55)"><rect class="a" width="16.407" height="0.124" transform="translate(206.459 170.153)"/><rect class="a" width="4.305" height="0.124" transform="translate(159.77 171.501)"/><rect class="a" width="9.506" height="0.124" transform="translate(196.457 165.556)"/><rect class="a" width="21.395" height="0.124" transform="translate(25.987 166.389)"/><rect class="a" width="3.136" height="0.124" transform="translate(51.795 166.389)"/><rect class="a" width="46.406" height="0.124" transform="translate(65.126 168.479)"/><path class="a" d="M136.684,195.09H41.034a2.829,2.829,0,0,1-2.824-2.829V57.8A2.829,2.829,0,0,1,41.034,55h95.65a2.829,2.829,0,0,1,2.829,2.829V192.261A2.829,2.829,0,0,1,136.684,195.09ZM41.034,55.1a2.7,2.7,0,0,0-2.7,2.7V192.261a2.7,2.7,0,0,0,2.7,2.7h95.65a2.71,2.71,0,0,0,2.7-2.7V57.8a2.71,2.71,0,0,0-2.7-2.7Z" transform="translate(-19.282 -55)"/><path class="a" d="M352.984,195.09H257.328a2.834,2.834,0,0,1-2.829-2.829V57.8a2.834,2.834,0,0,1,2.829-2.8h95.655a2.828,2.828,0,0,1,2.819,2.8V192.261A2.829,2.829,0,0,1,352.984,195.09ZM257.328,55.1a2.71,2.71,0,0,0-2.7,2.7V192.261a2.71,2.71,0,0,0,2.7,2.7h95.655a2.71,2.71,0,0,0,2.7-2.7V57.8a2.71,2.71,0,0,0-2.7-2.7Z" transform="translate(-128.429 -55)"/><rect class="a" width="247.683" height="0.124" transform="translate(0 162.183)"/><path class="a" d="M107.706,306.928a2.693,2.693,0,0,1,.832,2.105,1.724,1.724,0,0,1-1.981,1.253,2.556,2.556,0,0,1-1.853-1.64c-.193-.5-.268-1.04-.461-1.541-.555-1.451-1.981-2.338-3.329-3.121a5.846,5.846,0,0,0,1.778,4.032,38.741,38.741,0,0,1,3.081,3.3,4.5,4.5,0,0,1,.773,4.255.693.693,0,0,1-.208.3.669.669,0,0,1-.5.074c-1.575-.213-2.65-1.694-3.344-3.126s-1.263-3.027-2.541-3.963c.565,1.9,2.081,3.354,2.888,5.157a7.475,7.475,0,0,1-.733,7.237.773.773,0,0,1-.5.377c-.307.03-.53-.282-.659-.56-1.288-2.814-.342-6.608-2.571-8.748l-1.03,2.249a3.532,3.532,0,0,1-.812,1.258,1.214,1.214,0,0,1-1.392.208c-.664-.426-.5-1.427-.2-2.165a33.28,33.28,0,0,1,2.72-5.449c-.748-.352-1.486.416-2.051,1.04s-1.59,1.169-2.1.5a1.184,1.184,0,0,1-.2-.758,4.911,4.911,0,0,1,1.843-3.334,12.847,12.847,0,0,0,2.665-2.848,4.117,4.117,0,0,1-2.19.059,1.439,1.439,0,0,1-.991-1.724,19.764,19.764,0,0,1,2.784-2.606c1.134-.362,2.244.689,3.106,1.313a36.988,36.988,0,0,1,7.163,6.861Z" transform="translate(-47.093 -177.97)"/><path class="b" d="M107.141,320.979v-1.12c-.124-10.67-2.011-14.653-2.477-14.767l-.054-.5a.55.55,0,0,1,.451.163c.991.847,2.477,5.568,2.6,15.089v1.12Z" transform="translate(-52.79 -180.954)"/><path class="b" d="M109.71,324.733V317.5c0-10.214,1.555-15.287,2.6-16.2a.58.58,0,0,1,.456-.173l-.064.5c-.5.124-2.477,4.4-2.477,15.886v7.227Z" transform="translate(-55.363 -179.199)"/><path class="c" d="M108.873,365.7H95.493L94.18,349.61h16Z" transform="translate(-47.526 -203.67)"/><path class="d" d="M109.7,349.11H91.487l-.327-2.14h18.864Z" transform="translate(-46.002 -202.338)"/><path class="e" d="M64.336,297.305a3.3,3.3,0,0,0-2.591.708,2.051,2.051,0,0,0,.213,2.759,3.036,3.036,0,0,0,2.878.589c.614-.173,1.179-.5,1.793-.664,1.768-.5,3.631.218,5.33.931a6.883,6.883,0,0,1-5.087,1.189,45.207,45.207,0,0,0-5.335-.56,5.3,5.3,0,0,0-4.587,2.323.832.832,0,0,0-.139.411.812.812,0,0,0,.287.525c1.328,1.342,3.5,1.308,5.35.941s3.775-.961,5.588-.431c-2.194.817-4.661.416-6.935.941a8.882,8.882,0,0,0-6.341,5.855.9.9,0,0,0,0,.733c.188.317.644.307.991.228,3.581-.783,6.509-4.389,10.13-3.8l-1.4,2.586a4.136,4.136,0,0,0-.614,1.669,1.432,1.432,0,0,0,.8,1.486c.877.327,1.7-.56,2.194-1.352a39.589,39.589,0,0,0,3.245-6.479c.872.456.684,1.724.5,2.685s0,2.338.991,2.353a1.417,1.417,0,0,0,.862-.352,5.874,5.874,0,0,0,1.848-4.126,15.138,15.138,0,0,1,.8-4.562,4.84,4.84,0,0,0,1.511,2.12,1.681,1.681,0,0,0,2.333-.3,23.714,23.714,0,0,0,.5-4.5c-.466-1.332-2.254-1.64-3.468-2.006a43.375,43.375,0,0,0-11.636-1.9Z" transform="translate(-27.595 -177.273)"/><path class="c" d="M117.2,314.858a3.3,3.3,0,0,0,1.838,1.952,2.046,2.046,0,0,0,2.338-1.486,3.022,3.022,0,0,0-.832-2.814c-.436-.461-.991-.812-1.427-1.273-1.273-1.328-1.486-3.314-1.674-5.147a6.865,6.865,0,0,1,3.438,3.963,41.238,41.238,0,0,0,2.006,4.954,5.391,5.391,0,0,0,4.186,2.972.783.783,0,0,0,.426-.074.812.812,0,0,0,.332-.5c.565-1.8-.5-3.705-1.679-5.172s-2.62-2.883-3-4.731c1.754,1.555,2.556,3.923,4.092,5.692a8.867,8.867,0,0,0,8.144,2.853.912.912,0,0,0,.654-.337c.188-.312-.035-.708-.272-.991-2.373-2.8-6.935-3.69-8.109-7.163H130.6a4.234,4.234,0,0,0,1.764-.238,1.441,1.441,0,0,0,.916-1.4c-.119-.926-1.288-1.238-2.219-1.3a39.8,39.8,0,0,0-7.247.168c0-.991,1.2-1.407,2.145-1.679s2.061-1.12,1.61-1.981a1.407,1.407,0,0,0-.713-.594,5.867,5.867,0,0,0-4.513.307,15.256,15.256,0,0,1-4.4,1.432,4.953,4.953,0,0,0,1.164-2.328,1.7,1.7,0,0,0-1.362-1.917,23.525,23.525,0,0,0-4.2,1.679c-.956,1.04-.391,2.759-.149,4a43.42,43.42,0,0,0,3.809,11.151Z" transform="translate(-57.027 -177.641)"/><path class="f" d="M250.891,78.382V91.7H233.276l-.936-.887.936-12.444a8.808,8.808,0,1,1,17.615,0Z" transform="translate(-117.247 -62.347)"/><path class="c" d="M249.955,76.608V89.923H232.34V76.608a8.808,8.808,0,0,1,17.615,0Z" transform="translate(-117.247 -61.459)"/><circle class="b" cx="6.172" cy="6.172" r="6.172" transform="translate(117.128 20.458) rotate(-80.78)"/><circle class="g" cx="6.172" cy="6.172" r="6.172" transform="translate(117.318 9.065)"/><path class="b" d="M249.111,86.085a.5.5,0,1,1-.5-.5A.5.5,0,0,1,249.111,86.085Z" transform="translate(-125.21 -70.437)"/><path class="b" d="M246.82,83.438l-2.13-2.006.208-.223,1.932,1.818,3.463-3.056.2.223Z" transform="translate(-123.479 -67.601)"/><path class="b" d="M102.1,156.385a80.988,80.988,0,0,1-12.993.807,82.178,82.178,0,0,1-12.993-.807,2.269,2.269,0,0,1-.5.718,2.159,2.159,0,0,1-3.056-3.051c.183-.183.5-.2.609-.421.892-1.8-.7-5.251-.7-8.976s1.59-7.163.694-8.971c-.357-.723-1.233-1.085-1.233-1.947s.877-1.219,1.233-1.942c.892-1.808-.694-5.256-.694-8.976s1.59-7.168.7-8.976c-.109-.213-.426-.238-.609-.416a2.159,2.159,0,1,1,3.056-3.051c.208.213.228.58.5.718,2.308,1.268,7.43-.812,12.993-.812s10.685,2.081,12.993.812c.248-.139.263-.5.5-.718a2.158,2.158,0,0,1,3.051,3.051c-.178.178-.5.2-.6.416-.892,1.808.7,5.256.7,8.976s-1.59,7.168-.7,8.976c.362.723,1.238,1.08,1.238,1.942s-.877,1.224-1.238,1.947c-.892,1.808.7,5.256.7,8.971s-1.59,7.173-.7,8.976c.109.218.426.238.6.421a2.158,2.158,0,1,1-3.051,3.051A2.116,2.116,0,0,1,102.1,156.385Z" transform="translate(-36.298 -82.68)"/><path class="d" d="M104.083,154.375a80.852,80.852,0,0,1-12.993.812,82.162,82.162,0,0,1-13-.812,2.115,2.115,0,0,1-.5.718,2.158,2.158,0,0,1-3.051-3.051c.178-.178.5-.2.6-.416.892-1.808-.7-5.256-.7-8.976s1.59-7.168.7-8.976c-.357-.723-1.238-1.085-1.238-1.942s.882-1.224,1.238-1.947c.911-1.808-.7-5.256-.7-9s1.59-7.168.7-8.976c-.1-.213-.426-.233-.6-.416a2.158,2.158,0,0,1,3.051-3.051c.213.213.228.585.5.718,2.313,1.268,7.43-.812,13-.812s10.68,2.081,12.993.812c.248-.134.263-.5.5-.718a2.158,2.158,0,1,1,3.051,3.051c-.178.183-.5.2-.6.416-.892,1.808.7,5.256.7,8.976s-1.59,7.168-.7,8.976c.357.723,1.238,1.085,1.238,1.947s-.882,1.219-1.238,1.942c-.892,1.808.7,5.256.7,8.976s-1.59,7.168-.7,8.976c.109.213.426.238.6.416a2.158,2.158,0,0,1-3.051,3.051A2.115,2.115,0,0,1,104.083,154.375Z" transform="translate(-37.297 -81.656)"/><rect class="a" width="26.007" height="38.762" transform="translate(66.79 69.455) rotate(180)"/><path class="e" d="M311.67,103.691S324.668,91,342.3,91s28.979,12.691,28.979,12.691V204.746H311.67Z" transform="translate(-157.279 -73.167)"/><path class="b" d="M371.532,105.957a40.521,40.521,0,0,0-56.412,0v99.271h56.412Zm-1.764,97.5h-52.9V106.71a38.767,38.767,0,0,1,52.885,0Z" transform="translate(-159.02 -74.948)"/><path class="a" d="M371.45,205.157H308.87V101.527l.451-.456a43.622,43.622,0,0,1,61.678,0l.451.456Zm-59.493-3.071h56.422V102.815a40.521,40.521,0,0,0-56.412,0Z" transform="translate(-155.866 -71.805)"/><path class="h" d="M352.349,97.66v8.065H335.6V97.66c-1.04.223-2.071.5-3.081.783v7.282h-13.7c-.817.664-1.62,1.357-2.388,2.1v.991h16.089v30.356H316.43v3.081h16.089v30.51H316.43v3.086h16.089v30.292H335.6V175.844h16.748v30.292h3.086V175.844H371.52v-3.086H355.435v-30.51H371.52v-3.081H355.435V108.811H371.52v-.991c-.768-.738-1.565-1.432-2.383-2.1h-13.7V98.443C354.42,98.141,353.369,97.883,352.349,97.66Zm0,75.1H335.6v-30.51h16.748Zm0-33.591H335.6V108.811h16.748Z" transform="translate(-159.681 -76.528)"/><rect class="c" width="73.22" height="6.311" transform="translate(147.386 133.61)"/></g><g transform="translate(27.795 228.066)"><ellipse class="e" cx="96.047" cy="5.608" rx="96.047" ry="5.608"/></g><g transform="translate(172.387 197.74)"><path class="i" d="M348,366.694a4.513,4.513,0,0,1,2.9,2.923,6.338,6.338,0,0,0,5.533,3.908,4.156,4.156,0,0,1,2.214.773l.7.4c-.03-.243-.054-.5-.069-.758a6.526,6.526,0,0,1-.575-.5,1.518,1.518,0,0,0-.129-.124c-2.18-2.1-2.239-4.3-4.78-6.281S348,366.694,348,366.694Z" transform="translate(-348 -354.711)"/><path class="i" d="M380.325,362.628a4.523,4.523,0,0,0-2.477,3.3,6.321,6.321,0,0,1-4.954,4.647,4.088,4.088,0,0,0-2.081,1.08c-.2.154-.411.322-.634.5a5.061,5.061,0,0,0-.04-.763c.173-.178.337-.362.5-.56.035-.05.074-.094.109-.139,1.863-2.383,1.615-4.572,3.849-6.9S380.325,362.628,380.325,362.628Z" transform="translate(-359.173 -352.835)"/><path class="i" d="M365.139,361.974a14.082,14.082,0,0,1-.426,4.1c-1.224,4.756-1.347,3-1.347,3a35.1,35.1,0,0,0,1.139-6.593,5.049,5.049,0,0,0-.04-.763,11.239,11.239,0,0,0-.57-2.779c-1.293-3.735-3.874-4.889-4.894-8.917s2.516-6.866,2.516-6.866a5.613,5.613,0,0,0,1.9,4.825,7.938,7.938,0,0,1,1.7,8.362c-.594,1.189-.218,2.68-.045,4.661C365.1,361.32,365.124,361.642,365.139,361.974Z" transform="translate(-353.458 -343.15)"/><path class="i" d="M364.07,404.68h-7.926a1.689,1.689,0,0,1-1.674-1.461l-2.11-15.659h15.48l-2.115,15.659A1.689,1.689,0,0,1,364.07,404.68Z" transform="translate(-350.2 -365.561)"/><path class="i" d="M367.564,387.45v2.878h-1.669l-1.734,12.83a1.679,1.679,0,0,1-1.669,1.461h-7.916a1.689,1.689,0,0,1-1.669-1.461l-1.734-12.83H349.25V387.45Z" transform="translate(-348.631 -365.505)"/><path class="j" d="M367.564,387.45v2.878h-1.669l-1.734,12.83a1.679,1.679,0,0,1-1.669,1.461h-7.916a1.689,1.689,0,0,1-1.669-1.461l-1.734-12.83H349.25V387.45Z" transform="translate(-348.631 -365.505)"/></g><g transform="translate(56.57 178.594)"><path class="i" d="M192.867,320.1a1.947,1.947,0,0,1-1.907,1.754,1.58,1.58,0,0,1-1.6-1.754,1.981,1.981,0,0,1,1.907-1.754,1.58,1.58,0,0,1,1.6,1.754Z" transform="translate(-186.631 -311.489)"/><path class="i" d="M192.6,316.4a.352.352,0,0,1-.332-.406c.089-.991-.936-1.8-2.333-1.8a2.881,2.881,0,0,0-2.645,1.8.436.436,0,0,1-.406.406.352.352,0,0,1-.332-.406c.1-1.179,1.719-2.616,3.468-2.616s3.126,1.149,3,2.616A.436.436,0,0,1,192.6,316.4Z" transform="translate(-185.219 -308.981)"/><path class="i" d="M192.9,311.762a.352.352,0,0,1-.332-.406c.084-.991-1.328-1.8-3.151-1.8-1.912,0-3.418,1.258-3.468,1.8a.436.436,0,0,1-.406.406.352.352,0,0,1-.332-.406c.1-1.179,2.1-2.616,4.275-2.616,2.3,0,3.963,1.125,3.814,2.616A.436.436,0,0,1,192.9,311.762Z" transform="translate(-184.543 -306.64)"/><path class="i" d="M193.179,307.522a.352.352,0,0,1-.332-.411c.074-.867-1.486-1.793-3.963-1.793s-4.24,1.333-4.28,1.793a.431.431,0,0,1-.4.411.357.357,0,0,1-.337-.411c.1-1.174,2.477-2.611,5.092-2.611,2.814,0,4.765,1.1,4.632,2.611A.436.436,0,0,1,193.179,307.522Z" transform="translate(-183.861 -304.5)"/></g><g transform="translate(17.044 160.704)"><path class="k" d="M238.209,399.209l3.522-2.923-8.887-8.436-3.795,3.24Z" transform="translate(-169.253 -328.671)"/><path class="i" d="M257.514,402.521a1.828,1.828,0,0,0-1.224.059c-.238.069-.5.149-.7.233s-.332.124-.461.178l-.4.173a.114.114,0,0,0-.074.1.074.074,0,0,0,0,.049.139.139,0,0,0,.074.055,8.373,8.373,0,0,0,1.531.258,1.837,1.837,0,0,0,.753-.054h.035a2.069,2.069,0,0,0,.4-.178.639.639,0,0,0,.233-.55A.376.376,0,0,0,257.514,402.521Zm-.05.322a.386.386,0,0,1-.154.372.882.882,0,0,1-.4.163,2.313,2.313,0,0,1-.6.03,6.642,6.642,0,0,1-.936-.114l-.233-.05a6.254,6.254,0,0,1,1.313-.456,5.266,5.266,0,0,1,.733-.124.4.4,0,0,1,.213.055A.148.148,0,0,1,257.464,402.843Z" transform="translate(-182.172 -336.035)"/><path class="i" d="M256.306,398.837a.827.827,0,0,0-.56.362.988.988,0,0,0-.1.188,3.408,3.408,0,0,0-.109,1.778v.025a.109.109,0,0,0,.074.089.084.084,0,0,0,.069,0,.069.069,0,0,0,.045-.025,2.815,2.815,0,0,0,.268-.272,4.336,4.336,0,0,0,.421-.594c.307-.5.525-1.06.391-1.352C256.757,398.911,256.628,398.782,256.306,398.837Zm.3.292c.084.193-.084.634-.332,1.07a4.217,4.217,0,0,1-.535.743,3.329,3.329,0,0,1,.069-1.342.961.961,0,0,1,.129-.267.619.619,0,0,1,.342-.253h.069C256.554,399.03,256.594,399.109,256.6,399.129Z" transform="translate(-182.585 -334.209)"/><path class="l" d="M248.99,404.135l-4.429,2.254a.391.391,0,0,0-.208.466L245.661,411a.773.773,0,0,0,.991.5l.079-.03c7.584-2.67,9.907-4.557,10.7-4.988,2.259-1.233.991-2.833.144-2.635-3.785.906-5.053.674-6.692.253A4.042,4.042,0,0,0,248.99,404.135Z" transform="translate(-176.967 -336.733)"/><path class="f" d="M232.844,387.86l4.5,3.988-3.794,3.24-4.5-3.988Z" transform="translate(-169.253 -328.676)"/><path class="i" d="M231.715,394.841l5.657-5.221-1.243-2.19-6.549,5.622Z" transform="translate(-169.52 -328.459)"/><path class="i" d="M184.335,368.669l-.758.654-1.129.991-.679.58-1.981,1.694-.381.327s-8.065-4.543-12.553-8.421c-3.076-2.66-3.354-3.646-3.681-3.4-4.334,3.3-17.164,14.7-24.441,20.637-.233.03-.471.05-.708.069a21.7,21.7,0,0,1-9.313-1.045c-.025-3.156,2.67-10.522,2.893-11.235a125.351,125.351,0,0,1,28.122-19.7c.168-.084.347-.159.525-.233s.451-.193.679-.272a8.753,8.753,0,0,1,2.665-.6,5.879,5.879,0,0,1,2.264.357,8.625,8.625,0,0,1,1.2.53,10.889,10.889,0,0,1,.991.585c.535.342,1.055.723,1.55,1.1,1.11.857,9.511,11.676,14.029,16.669h0A7.929,7.929,0,0,1,184.335,368.669Z" transform="translate(-118.618 -308.92)"/><g class="m" transform="translate(10.092 39.791)"><path d="M184.335,368.669l-.758.654-1.129.991-.679.58-1.981,1.694-.381.327s-8.065-4.543-12.553-8.421c-3.076-2.66-3.354-3.646-3.681-3.4-4.334,3.3-17.164,14.7-24.441,20.637-.233.03-.471.05-.708.069a21.7,21.7,0,0,1-9.313-1.045c-.025-3.156,2.67-10.522,2.893-11.235a125.351,125.351,0,0,1,28.122-19.7c.168-.084.347-.159.525-.233s.451-.193.679-.272a8.753,8.753,0,0,1,2.665-.6,5.879,5.879,0,0,1,2.264.357,8.625,8.625,0,0,1,1.2.53,10.889,10.889,0,0,1,.991.585c.535.342,1.055.723,1.55,1.1,1.11.857,9.511,11.676,14.029,16.669h0A7.929,7.929,0,0,1,184.335,368.669Z" transform="translate(-128.71 -348.711)"/></g><path class="k" d="M243.3,402.008l3.819-3.725L239.727,389l-4.617,2.725Z" transform="translate(-172.311 -329.251)"/><path class="i" d="M264.319,405.4c-.426-.149-1.293.327-1.982.748l-.441.292h0l-.069.05-.3.213a.114.114,0,0,0-.054.129.119.119,0,0,0,.109.089,9.7,9.7,0,0,0,1.367-.045l.3-.035a1.9,1.9,0,0,0,.921-.317,2.242,2.242,0,0,0,.272-.213.669.669,0,0,0,.124-.629A.431.431,0,0,0,264.319,405.4Zm0,.352a.431.431,0,0,1-.079.426,1.353,1.353,0,0,1-.753.377,5.456,5.456,0,0,1-1.02.139h-.5l.163-.129.119-.084a6.44,6.44,0,0,1,1.734-.862.416.416,0,0,1,.233,0,.144.144,0,0,1,.124.134Z" transform="translate(-185.614 -337.514)"/><path class="i" d="M262.326,402.191a.882.882,0,0,0-.5.5,3.316,3.316,0,0,0,.228,2.115h0a.124.124,0,0,0,.1.074.129.129,0,0,0,.074,0,.05.05,0,0,0,.04-.03h0a2.086,2.086,0,0,0,.208-.337c.367-.689.708-1.838.411-2.234C262.812,402.167,262.648,402.068,262.326,402.191Zm-.124,2.333a2.859,2.859,0,0,1-.154-1.734.639.639,0,0,1,.3-.342l.064-.035c.213-.084.267,0,.287,0,.213.307-.114,1.476-.5,2.13Z" transform="translate(-185.741 -335.879)"/><path class="f" d="M238.8,387.85l3.477,4.453-4.706,2.62-3.532-4.334Z" transform="translate(-171.771 -328.671)"/><path class="i" d="M178.284,370.341l-.966.545h0l-1.659.936-1.486.832h0l-1.531.862h0l-.57.357-.367-.267-.312-.228c-.367-.272-.872-.654-1.486-1.12h0c-3.076-2.432-8.55-7.208-10.18-11.552-1.055,1.258-2.284,2.863-3.76,4.572-11.483,13.33-23.748,22.727-40.59,18.68-7.317-1.759-7.039-11.889-7.039-11.889,0-3.829,2.838-7.767,2.838-7.767l22.405,1.739a65.665,65.665,0,0,1,15.668-13.375c.149-.094.3-.183.456-.263s.381-.218.57-.322a25.547,25.547,0,0,1,6.093-2.477c.436-.1.867-.2,1.288-.258a12.223,12.223,0,0,1,1.318-.129h0a7.657,7.657,0,0,1,7.4,3.988l11.577,16.684Z" transform="translate(-108.337 -309.17)"/><path class="j" d="M178.284,370.341l-.966.545h0l-1.659.936-1.486.832h0l-1.531.862h0l-.57.357-.367-.267-.312-.228c-.367-.272-.872-.654-1.486-1.12h0c-3.076-2.432-8.55-7.208-10.18-11.552-1.055,1.258-2.284,2.863-3.76,4.572-11.483,13.33-23.748,22.727-40.59,18.68-7.317-1.759-7.039-11.889-7.039-11.889,0-3.829,2.838-7.767,2.838-7.767l22.405,1.739a65.665,65.665,0,0,1,15.668-13.375c.149-.094.3-.183.456-.263s.381-.218.57-.322a25.547,25.547,0,0,1,6.093-2.477c.436-.1.867-.2,1.288-.258a12.223,12.223,0,0,1,1.318-.129h0a7.657,7.657,0,0,1,7.4,3.988l11.577,16.684Z" transform="translate(-108.337 -309.17)"/><path class="i" d="M233.379,394.651l7.4-3.7-.634-2.63-8.436,3.849Z" transform="translate(-170.595 -328.908)"/><path class="l" d="M253.237,406.9l-5.1,1.546a.426.426,0,0,0-.307.456l.619,4.627a.842.842,0,0,0,.951.689h.089c8.52-1.422,11.334-2.972,12.25-3.3,2.62-.887,1.57-2.814.644-2.759-4.176.258-5.474-.223-7.128-.991A4.184,4.184,0,0,0,253.237,406.9Z" transform="translate(-178.727 -338.272)"/><path class="l" d="M190.15,346.12H174.3a.733.733,0,0,1-.743-.812l.882-10.135a.9.9,0,0,1,.882-.812h15.852a.733.733,0,0,1,.743.812l-.887,10.14A.907.907,0,0,1,190.15,346.12Z" transform="translate(-141.246 -301.678)"/><path class="n" d="M191.583,346.095h-15.2l.9-10.2h15.2Z" transform="translate(-142.674 -302.45)"/><path class="o" d="M175.912,344.861a.451.451,0,1,1-.446-.451.446.446,0,0,1,.446.451Z" transform="translate(-141.983 -306.75)"/><path class="o" d="M208.946,344.633a.223.223,0,1,1-.223-.223A.223.223,0,0,1,208.946,344.633Z" transform="translate(-158.883 -306.75)"/><path class="k" d="M129.052,299c.565,3.1-.258,7.257-2.442,9.293a74.239,74.239,0,0,0,9.65,13.276c4.914-7.886.7-13.013.7-13.013-3.443-.867-3.339-2.264-2.71-4.651Z" transform="translate(-117.558 -283.834)"/><path class="i" d="M126.94,313.038a3.9,3.9,0,0,1,1.754-1.853c.753-.441,7.926.386,9.684,1.229a4.706,4.706,0,0,1,2.333,2.378Z" transform="translate(-117.725 -289.921)"/><path class="k" d="M167.608,293.8l3.19,1.486a6.569,6.569,0,0,1,.268,2.581c-.183,1.09-.674,1.451-2.477.7h0A6.2,6.2,0,0,1,167.608,293.8Z" transform="translate(-138.187 -281.21)"/><path class="k" d="M169.845,289.575l.357.763.634.362a.916.916,0,0,1,.411.991l-.332,1.367-3.185-1.486.6-1.2c.555-.847.991-1.09,1.456-.867Z" transform="translate(-138.309 -279.001)"/><path class="k" d="M142.564,316.068c1.828-4.008,2.6-5.885,4.587-13.3l-2.645-.3c-2.65,7.089-5.692,10.1-5.692,10.1s-14.92-2.512-16.773-1.635c-3,1.417-1.4,4.513.5,5.3s12.577,2.541,17.521,1.932a3.334,3.334,0,0,0,2.507-2.091Z" transform="translate(-114.411 -285.585)"/><g class="p" transform="translate(39.631 13.809)"><path d="M188.355,296.26l-.01.01,0,0Z" transform="translate(-188.34 -296.26)"/></g><path class="i" d="M139.626,321.718c3,9.7-6.99,11.1-4.458,26.71l-21.058-2.155c1.164-8.045,3.809-5.944,1.952-21.593a14.743,14.743,0,0,1,1.57-8.258,6.167,6.167,0,0,1,3.116-2.739c1.655-.639,8.421.877,11.493,1.486C135.658,315.115,139.156,320.494,139.626,321.718Z" transform="translate(-111.25 -291.166)"/><path class="l" d="M156.579,291.946c-.2.357-.159.723.064.847s.56-.05.753-.4.159-.723-.064-.847S156.768,291.6,156.579,291.946Z" transform="translate(-132.617 -280.055)"/><path class="l" d="M158,291.52l.956.218S158.178,292.149,158,291.52Z" transform="translate(-133.399 -280.059)"/><path class="q" d="M156.325,293.86a10.333,10.333,0,0,0,.931,2.71,1.694,1.694,0,0,1-1.427,0Z" transform="translate(-132.304 -281.24)"/><path class="l" d="M157.546,286.885a.238.238,0,0,0,.149-.173.233.233,0,0,0-.183-.272,2.294,2.294,0,0,0-2.031.56.233.233,0,1,0,.3.352l.03-.03a1.843,1.843,0,0,1,1.61-.426.208.208,0,0,0,.124-.01Z" transform="translate(-132.078 -277.471)"/><path class="k" d="M130.666,279.4c-.57,4.8-.916,6.821,1.04,9.694,2.942,4.32,8.976,3.963,10.962-.56,1.793-4.087,2.427-11.25-1.877-13.984a6.593,6.593,0,0,0-10.125,4.85Z" transform="translate(-119.38 -270.967)"/><path class="l" d="M154.816,300.586a2.7,2.7,0,0,0-.758,1.209.1.1,0,0,0,.193.05,2.566,2.566,0,0,1,.644-1.055Z" transform="translate(-130.913 -284.635)"/><path class="l" d="M156.666,278.749a1.981,1.981,0,0,1-1.773,2.011c-.644,1.744-2.427,4.4-3.993,3.4a2.354,2.354,0,0,0,1.169-3.71c-1.03-1.179-2.427-4.275,0-5.033C153.946,274.831,156.661,276.847,156.666,278.749Z" transform="translate(-129.727 -271.881)"/><path class="l" d="M133.5,273.3c-.679-2.809-4.726-5-7.614-4.909a12.2,12.2,0,0,0-7.658,3.636,8.1,8.1,0,0,0-2.516,3.661,3.66,3.66,0,0,0,1.268,4.012c-4.607,4.543-1.179,6.385-.5,6.073.1,1.139-.679,1.813-1.724,2.561a4.035,4.035,0,0,0-1.486,2.546,2.547,2.547,0,0,0,.991,2.972,1.313,1.313,0,0,1,.832-1.763,3.086,3.086,0,0,0,4.1,4.037c-.456-.114-1.095-.56-1.169-1.025a13.775,13.775,0,0,0,4.112,1.05,4.594,4.594,0,0,0,3.814-1.526,2.1,2.1,0,0,1,1.981-1.6,1.65,1.65,0,0,1,1.541,1.59c.9-.2,1.273-1.194,1.323-2.11a2.14,2.14,0,0,0-.421-1.362,1.912,1.912,0,0,0-1.333-.669,1.749,1.749,0,0,1-1.035-.822,1.357,1.357,0,0,1,.223-1.347c3.581-5.112,1.892-8.292,2.13-8.917s1.387.178,1.387.178C132.79,278.255,133.885,274.931,133.5,273.3Z" transform="translate(-110.769 -268.385)"/><path class="k" d="M143.486,290.556a4.215,4.215,0,0,0,.991,3.066c.966,1.125,2.269.456,2.68-.882.376-1.2.322-3.24-.991-3.874A1.876,1.876,0,0,0,143.486,290.556Z" transform="translate(-126.068 -278.62)"/><path class="i" d="M113.343,376.237l-.728,1.843c-.089.139.074.3.312.327l21.687,2.229c.188,0,.357-.059.381-.178l-.287-2.066c.03-.124-.129-.253-.337-.272l-20.662-1.982A.391.391,0,0,0,113.343,376.237Z" transform="translate(-110.483 -322.755)"/><path class="l" d="M151.667,382.334h-.575c-.114,0-.2-.059-.193-.129l.3-2.477c0-.069.109-.129.223-.129H152c.114,0,.2.059.193.134l-.3,2.477C151.88,382.275,151.781,382.334,151.667,382.334Z" transform="translate(-129.815 -324.508)"/><path class="i" d="M136.022,380.554h-.575c-.109,0-.2-.064-.188-.134l.3-2.477c0-.069.109-.124.223-.124h.575c.109,0,.2.059.188.139l-.3,2.452C136.24,380.5,136.121,380.554,136.022,380.554Z" transform="translate(-121.923 -323.609)"/><path class="l" d="M136.022,380.554h-.575c-.109,0-.2-.064-.188-.134l.3-2.477c0-.069.109-.124.223-.124h.575c.109,0,.2.059.188.139l-.3,2.452C136.24,380.5,136.121,380.554,136.022,380.554Z" transform="translate(-121.923 -323.609)"/><path class="f" d="M146.825,328.65s-1.432,2.165,1.07,8.684l1.055,2.66h0c.347.882,3.557-.411,4.647-1.838h0S148.3,333.985,146.825,328.65Z" transform="translate(-127.553 -298.797)"/><path class="k" d="M196.761,352.613l3.9-2.343-.03,3.572s-2.972,2.442-4.29.5C196.344,354.347,195.9,352.98,196.761,352.613Z" transform="translate(-152.691 -309.707)"/><path class="k" d="M207.894,351.414l-.163,1.3a.921.921,0,0,1-.753.8l-1.887.332.03-3.572,1.9.119a.911.911,0,0,1,.882.946A.459.459,0,0,1,207.894,351.414Z" transform="translate(-157.162 -309.707)"/><path class="k" d="M155.953,341.907a11.007,11.007,0,0,0,5.89,5.3c3.022.991,9.977-2.937,13.137-5.419,0-1.219-.263-1.546-1.437-1.868a26.272,26.272,0,0,1-9.338,2.477c-1.932.2-2.938-1.877-4.221-4.874-.639-1.486-3.116-10.462-3.963-11.859-1.337-2.244-6.068-1.357-4.884,3.78A96.778,96.778,0,0,0,155.953,341.907Z" transform="translate(-129.841 -296.702)"/><path class="i" d="M154.411,321.851c2.853,3.368,3.755,8.808,3.755,8.808l-8.114,3.636s-4.528-8.421-3.2-11c1.04-1.981,2.65-3.18,4.552-3.056a4.344,4.344,0,0,1,3.007,1.61Z" transform="translate(-127.65 -294.549)"/><path class="l" d="M118.781,378.968l-.575-.059c-.109-.025-.193-.074-.178-.149l.5-2.422c0-.074.119-.119.233-.109l.575.059c.109,0,.193.079.178.149l-.5,2.427a.188.188,0,0,1-.233.1Z" transform="translate(-113.227 -322.806)"/><rect class="l" width="0.495" height="20.761" transform="translate(3.204 53.612) rotate(-84.46)"/></g><g transform="translate(48.059 72.832)"><circle class="r" cx="3.671" cy="3.671" r="3.671" transform="translate(5.261 48.977) rotate(-76.72)"/><path class="r" d="M385.686,182.5a1.833,1.833,0,1,1-.535-1.3A1.838,1.838,0,0,1,385.686,182.5Z" transform="translate(-240.834 -136.245)"/><path class="g" d="M336.379,118.044a.723.723,0,0,1-.7.649.585.585,0,0,1-.59-.649.718.718,0,0,1,.7-.644.58.58,0,0,1,.589.644Z" transform="translate(-217.153 -104.321)"/><path class="g" d="M336.37,114.519l-.312.53a2.725,2.725,0,0,0-1.134-.223,2.373,2.373,0,0,0-1.021.228l-.253-.53a3.23,3.23,0,0,1,2.72,0Z" transform="translate(-216.43 -102.719)"/><path class="g" d="M336.54,111.333l-.317.535a4.19,4.19,0,0,0-1.9-.4,4.146,4.146,0,0,0-1.828.426l-.248-.525a4.741,4.741,0,0,1,2.13-.5A4.666,4.666,0,0,1,336.54,111.333Z" transform="translate(-215.724 -101.029)"/><path class="g" d="M336.7,108.127l-.317.55a5.509,5.509,0,0,0-2.67-.555,5.88,5.88,0,0,0-2.65.6l-.243-.5a6.6,6.6,0,0,1,2.947-.689,6.157,6.157,0,0,1,2.933.585Z" transform="translate(-215.002 -99.343)"/><path class="g" d="M357.381,113.73a2.878,2.878,0,0,1-2.908-3.185,3.552,3.552,0,0,1,3.468-3.185v.139a3.388,3.388,0,0,0-3.309,3.046,2.749,2.749,0,0,0,2.779,3.047Z" transform="translate(-226.93 -99.255)"/><path class="g" d="M357.366,113.728h-.124a2.972,2.972,0,0,1-3.022-3.309,3.7,3.7,0,0,1,3.6-3.309h.124l-.035.386h-.124a3.255,3.255,0,0,0-3.175,2.923,2.635,2.635,0,0,0,2.665,2.923h.124Z" transform="translate(-226.801 -99.129)"/><path class="g" d="M360.36,113.73v-.139a3.388,3.388,0,0,0,3.309-3.047,2.749,2.749,0,0,0-2.779-3.046v-.139a2.868,2.868,0,0,1,2.9,3.185A3.547,3.547,0,0,1,360.36,113.73Z" transform="translate(-229.909 -99.254)"/><path class="g" d="M360.214,113.727h-.124l.035-.386h.124a3.255,3.255,0,0,0,3.175-2.923,2.635,2.635,0,0,0-2.665-2.923h-.124l.035-.386h.124a2.972,2.972,0,0,1,3.017,3.309,3.686,3.686,0,0,1-3.6,3.309Z" transform="translate(-229.773 -99.128)"/><path class="g" d="M362.787,110.555h-.139a3.5,3.5,0,0,0-1.258-3.056l.084-.119A3.639,3.639,0,0,1,362.787,110.555Z" transform="translate(-230.429 -99.265)"/><path class="g" d="M362.714,110.447h-.386v-.124a3.455,3.455,0,0,0-1.214-2.972l-.094-.064.238-.327.094.064a3.688,3.688,0,0,1,1.362,3.279Z" transform="translate(-230.242 -99.053)"/><path class="g" d="M360.389,116.765l-.069-.119a4.24,4.24,0,0,0,1.793-3.056h.144A4.424,4.424,0,0,1,360.389,116.765Z" transform="translate(-229.889 -102.399)"/><path class="g" d="M360.168,116.8l-.178-.327.109-.064a4.092,4.092,0,0,0,1.724-2.972v-.124h.386v.124a4.563,4.563,0,0,1-1.937,3.279Z" transform="translate(-229.722 -102.257)"/><path class="g" d="M357.779,110.555h-.139a4.409,4.409,0,0,1,1.868-3.175l.064.119a4.26,4.26,0,0,0-1.793,3.056Z" transform="translate(-228.536 -99.265)"/><path class="g" d="M357.756,110.468h-.386v-.124a4.557,4.557,0,0,1,1.932-3.279l.109-.064.183.327-.109.064a4.1,4.1,0,0,0-1.729,2.972Z" transform="translate(-228.4 -99.073)"/><path class="g" d="M358.951,116.765a3.639,3.639,0,0,1-1.313-3.175h.144a3.5,3.5,0,0,0,1.258,3.056Z" transform="translate(-228.529 -102.399)"/><path class="g" d="M358.849,116.818l-.1-.064a3.763,3.763,0,0,1-1.362-3.279v-.124h.386v.124a3.438,3.438,0,0,0,1.209,2.972l.1.064Z" transform="translate(-228.403 -102.278)"/><path class="g" d="M360.369,113.732h-.139l.545-6.232h.144Z" transform="translate(-229.843 -99.326)"/><path class="g" d="M360.346,113.729h-.386l.57-6.479h.386Z" transform="translate(-229.707 -99.199)"/><path class="g" d="M361.156,110.439H355.88l.015-.139h5.271Z" transform="translate(-227.648 -100.739)"/><path class="g" d="M361.133,110.436H355.61l.035-.386h5.518Z" transform="translate(-227.512 -100.612)"/><path class="g" d="M360.847,113.9H354.62l.01-.139h6.227Z" transform="translate(-227.012 -102.485)"/><path class="g" d="M360.819,113.9H354.34l.035-.386h6.479Z" transform="translate(-226.871 -102.358)"/><path class="g" d="M360.552,117.349H355.42l.01-.139h5.137Z" transform="translate(-227.416 -104.226)"/><path class="g" d="M360.525,117.346H355.14l.035-.386h5.385Z" transform="translate(-227.275 -104.099)"/><g transform="translate(0 0)"><path class="i" d="M240.64,187.035H109.14l7.292-83.365h131.5Z" transform="translate(-103.135 -97.393)"/><path class="l" d="M232.739,187.165H103.127a6,6,0,0,1-6.073-6.658l7.247-82.84A7.431,7.431,0,0,1,111.543,91H241.126a6,6,0,0,1,6.073,6.658l-7.247,82.85a7.43,7.43,0,0,1-7.213,6.658Z" transform="translate(-97.018 -90.998)"/><path class="i" d="M244.453,187.035H120.24l7.3-83.365H251.745Z" transform="translate(-108.736 -97.393)"/><path class="g" d="M244.418,187.1H120.22l7.292-83.36h124.2Z" transform="translate(-108.726 -97.428)"/><path class="i" d="M257.273,114.306H133.07L134,103.74h124.2Z" transform="translate(-115.211 -97.428)"/><path class="i" d="M336.2,197.864H302.09l6.37-72.794h34.106Z" transform="translate(-200.504 -108.192)"/><path class="s" d="M274.412,203.25l8.878-15.185h-7.527Z" transform="translate(-186.537 -119.52)"/><path class="i" d="M2.51,0H41.831a5.433,5.433,0,0,1,3.053.668A3.818,3.818,0,0,1,46.26,3.486L44.34,35.668H.837A.9.9,0,0,1,0,34.717V2.853A2.7,2.7,0,0,1,2.51,0Z" transform="translate(44.18 48.089)"/><g class="t" transform="translate(101.586 16.878)"><path d="M336.2,197.864H302.09l6.37-72.794h34.106Z" transform="translate(-302.09 -125.07)"/></g><g class="u" transform="translate(109.223 31.011)"><path class="g" d="M322.21,168.659h-3.319a1.357,1.357,0,0,1-1.377-1.486l1.06-12.087a1.669,1.669,0,0,1,1.635-1.486h3.324a1.362,1.362,0,0,1,1.377,1.486l-1.055,12.087A1.674,1.674,0,0,1,322.21,168.659Z" transform="translate(-317.508 -153.6)"/></g><path class="l" d="M324.26,168.91c-.05.54-.5,1.055-1.486,1.055a2.289,2.289,0,0,1-1.2-.312l.386-.674a1.486,1.486,0,0,0,.857.263c.3,0,.5-.119.53-.332s-.114-.307-.456-.307h-.376l.05-.565.619-.614h-1.253l.064-.694h2.289l-.05.565-.718.7a.822.822,0,0,1,.748.911Z" transform="translate(-210.334 -129.215)"/><path class="i" d="M350.6,168.659H334.371a1.357,1.357,0,0,1-1.377-1.486l1.055-12.087a1.679,1.679,0,0,1,1.64-1.486h16.238a1.357,1.357,0,0,1,1.372,1.486l-1.055,12.087A1.679,1.679,0,0,1,350.6,168.659Z" transform="translate(-216.096 -122.589)"/><path class="l" d="M347.354,205.749H331.121a1.362,1.362,0,0,1-1.377-1.486l1.06-12.087a1.679,1.679,0,0,1,1.64-1.486h16.248a1.362,1.362,0,0,1,1.377,1.486l-1.06,12.087A1.679,1.679,0,0,1,347.354,205.749Z" transform="translate(-214.456 -141.306)"/><path class="i" d="M344.114,242.849H327.876a1.357,1.357,0,0,1-1.372-1.486l1.055-12.087a1.679,1.679,0,0,1,1.64-1.486h16.233a1.357,1.357,0,0,1,1.377,1.486l-1.06,12.087A1.669,1.669,0,0,1,344.114,242.849Z" transform="translate(-212.821 -160.028)"/><g class="u" transform="translate(107.623 49.384)"><path class="g" d="M318.98,205.749h-3.324a1.357,1.357,0,0,1-1.372-1.486l1.055-12.087a1.679,1.679,0,0,1,1.64-1.486H320.3a1.357,1.357,0,0,1,1.372,1.486l-1.055,12.087A1.679,1.679,0,0,1,318.98,205.749Z" transform="translate(-314.278 -190.69)"/></g><path class="l" d="M318.791,201.81l-.277,3.17h-.892l.218-2.477h-.589l.059-.694Z" transform="translate(-208.154 -146.918)"/><path class="l" d="M323.12,203.99c-.045.54-.5,1.055-1.486,1.055a2.278,2.278,0,0,1-1.2-.312l.381-.674a1.546,1.546,0,0,0,.857.263c.3,0,.5-.119.53-.332s-.109-.307-.456-.307h-.376l.05-.565.619-.614h-1.248l.059-.694h2.294l-.05.565-.718.7a.817.817,0,0,1,.748.911Z" transform="translate(-209.759 -146.918)"/><g class="u" transform="translate(106.013 67.762)"><path class="g" d="M315.73,242.849h-3.319a1.357,1.357,0,0,1-1.377-1.486l1.055-12.087a1.679,1.679,0,0,1,1.64-1.486h3.324a1.362,1.362,0,0,1,1.377,1.486l-1.06,12.087a1.679,1.679,0,0,1-1.64,1.486Z" transform="translate(-311.028 -227.79)"/></g><path class="g" d="M348.568,138.319h-20.5l.337-3.839H348.9Z" transform="translate(-213.614 -112.941)"/><path class="l" d="M315.331,243.19l-.064.708H312.79l.05-.56,1.283-1.11c.272-.238.322-.381.337-.5,0-.208-.109-.327-.381-.327a.723.723,0,0,0-.594.307l-.629-.372a1.585,1.585,0,0,1,1.367-.664c.728,0,1.2.376,1.149.966a1.412,1.412,0,0,1-.629.991l-.644.555Z" transform="translate(-205.904 -166.531)"/><path class="l" d="M320.69,242.96c-.05.54-.52,1.055-1.486,1.055a2.288,2.288,0,0,1-1.2-.312l.386-.674a1.521,1.521,0,0,0,.857.263c.3,0,.5-.119.53-.332s-.114-.307-.456-.307h-.376l.05-.57.619-.609h-1.253l.064-.694h2.289l-.05.565-.718.7a.822.822,0,0,1,.748.911Z" transform="translate(-208.533 -166.583)"/><path class="g" d="M353.335,165.465H339.95l.045-.5h13.385Z" transform="translate(-219.609 -128.327)"/><path class="g" d="M346.247,169.975H339.56l.04-.5h6.692Z" transform="translate(-219.413 -130.603)"/><path class="g" d="M346.845,239.615H333.46l.045-.5h13.385Z" transform="translate(-216.334 -165.745)"/><path class="g" d="M339.762,244.135H333.07l.04-.5H339.8Z" transform="translate(-216.138 -168.026)"/><path class="g" d="M350.115,202.3H336.73l.04-.5h13.385Z" transform="translate(-217.985 -146.912)"/><path class="g" d="M343.022,206.805H336.33l.045-.5h6.692Z" transform="translate(-217.783 -149.188)"/><path class="g" d="M367.2,157.484c.292-.7.1-1.214.8-1.214s.342.5.589,1.214c.129.352-.337.287-.718.287S367.044,157.845,367.2,157.484Z" transform="translate(-233.344 -123.937)"/><path class="g" d="M368.587,156.266a.208.208,0,0,1-.208-.228.258.258,0,0,1,.248-.228.2.2,0,0,1,.208.228A.248.248,0,0,1,368.587,156.266Zm.03-.337a.124.124,0,0,0-.119.109.1.1,0,0,0,.1.109.124.124,0,0,0,.119-.109.1.1,0,0,0-.1-.109Z" transform="translate(-233.955 -123.704)"/><path class="g" d="M363.963,194.769c.292-.7.1-1.209.8-1.209s.342.5.589,1.209c.129.352-.337.292-.718.292S363.795,195.12,363.963,194.769Z" transform="translate(-231.709 -142.754)"/><path class="g" d="M365.327,193.536a.208.208,0,0,1-.208-.228.253.253,0,0,1,.248-.228.2.2,0,0,1,.208.228A.252.252,0,0,1,365.327,193.536Zm.03-.337a.124.124,0,0,0-.119.109.1.1,0,0,0,.1.109.124.124,0,0,0,.119-.109.1.1,0,0,0-.1-.114Z" transform="translate(-232.31 -142.512)"/><path class="g" d="M360.678,231.994c.292-.7.1-1.214.8-1.214s.342.5.589,1.214c.129.347-.337.287-.718.287S360.524,232.375,360.678,231.994Z" transform="translate(-230.054 -161.537)"/><path class="g" d="M362.067,230.776a.208.208,0,0,1-.208-.228.258.258,0,0,1,.248-.228.2.2,0,0,1,.208.228A.253.253,0,0,1,362.067,230.776Zm.03-.337a.124.124,0,0,0-.119.109.1.1,0,0,0,.1.109.119.119,0,0,0,.119-.109.1.1,0,0,0-.1-.109Z" transform="translate(-230.665 -161.305)"/><path class="v" d="M130.675,91.11,104.99,187.176h8.644l25.4-96.066Z" transform="translate(-101.041 -91.055)"/><path class="v" d="M157.595,91.11,131.91,187.176h17.14l25.4-96.066Z" transform="translate(-114.626 -91.055)"/><g class="w" transform="translate(50.519 54.999)"><circle class="z" cx="2.972" cy="2.972" r="2.972"/><circle class="aa" cx="2.972" cy="2.972" r="2.472"/></g><g class="w" transform="translate(75.287 55.494)"><circle class="z" cx="2.972" cy="2.972" r="2.972"/><circle class="aa" cx="2.972" cy="2.972" r="2.472"/></g><path class="x" d="M195,221.107s5.136-6.115,10.82-6.115a9.27,9.27,0,0,1,2.24.3c4.724,1.148,8.865,5.819,8.865,5.819" transform="translate(-139.67 -145.286)"/><g class="y" transform="translate(20.848 20.676)"><ellipse class="z" cx="41.855" cy="8.502" rx="41.855" ry="8.502"/><ellipse class="aa" cx="41.855" cy="8.502" rx="41.355" ry="8.002"/></g><path class="g" d="M5.2,9.784q.3-1.03.606-2.534t.329-2.1q.012-.316.065-.428t.211-.195q.158-.082.341-.082.119,0,.2.173t.069.411q-.007.186-.161.657-.309,1.073-.625,2.546t-.325,1.7q-.018.463-.01.585.008.225-.156.355t-.424.13q-.153,0-.2-.041t-.212-.232q-.161-.191-.2-.368t-.242-.433Q3.306,8.338,2.4,6.453q-.315,1-.622,2.771l-.134.722q-.021.108-.032.435t-.051.439q-.04.112-.18.257t-.262.145q-.284,0-.325-.249T.761,10.59q.012-.316.227-1.029t.546-2.183q.331-1.473.347-1.87l.005-.237q.009-.125.057-.222t.176-.166q.128-.069.251-.069t.21.049q.1.05.134.151T2.8,5.39q.137.838.963,2.241T5.2,9.784Zm3.656,1.325q-.584,0-.945-.452T7.578,9.543q.043-1.117.822-2.2t1.81-1.085q.682,0,1.086.532t.377,1.27q-.042,1.127-.955,2.09T8.859,11.109ZM8.331,9.431q-.017.438.154.715t.469.278q.635,0,1.3-.708t.7-1.576q.02-.533-.213-.865t-.646-.331q-.686,0-1.21.855T8.331,9.431Zm12.254.159q.167,0,.16.209t-.5.622q-.49.4-1.123.643t-1.15.238q-.758,0-1.362-.51t-.569-1.473Q16.106,7.56,17.657,5.9t2.934-1.666q.518,0,.818.323t.284.753q-.014.4-.067.63t-.286.389q-.233.159-.37.159-.1,0-.168-.087t-.065-.235q0-.1.088-.417t.089-.465q.016-.443-.366-.443-.591,0-1.487.689T17.52,7.271q-.646,1.057-.678,1.947-.022.6.313.989t.981.394q.373,0,.913-.188t1-.506Q20.5,9.59,20.585,9.59ZM23.96,3.544q.309,0,.3.4-.012.356-.433,1.695-.266.843-.43,1.861t-.185,1.6q-.025.718.04,1.428.012.135.01.2-.008.218-.159.374t-.315.156q-.228,0-.306-.288t-.055-.927q.051-1.457.473-3.61t.638-2.516Q23.749,3.545,23.96,3.544Zm3.711,5.78q-.631.819-1.235,1.228t-1.094.409q-.331,0-.562-.284t-.215-.728q.04-1.145,1.1-2.466t2.054-1.321q.361,0,.524.418.051.139.172.139.344,0,.335.27,0,.135-.056.37-.276,1.285-.294,1.812-.036,1.055.353,1.264.186.1.181.257,0,.135-.195.272t-.362.137q-.332,0-.531-.463T27.671,9.324Zm-.178-2.452q-.568,0-1.358,1.077T25.32,9.737q-.017.5.309.5.473,0,1.346-.966t.9-1.777Q27.9,6.872,27.493,6.872Zm4.6,3.043q.009-.284-.669-.646-.86-.454-1.159-.727t-.288-.608q.029-.867.908-1.438t1.423-.571q.349,0,.5.122t.143.423q0,.135-.122.231t-.182.1q-.047,0-.183-.065t-.179-.061q-.216,0-.886.318t-.684.719q-.008.244.218.442t.821.486q.48.236.762.5t.27.631q-.022.668-.946,1.045t-1.752.376q-.7,0-.682-.481.006-.166.166-.244t.32-.078q.065,0,.244.044t.231.044q.479,0,1.032-.161T32.1,9.916Zm3.756,0q.009-.284-.671-.647-.863-.454-1.163-.727t-.289-.609q.029-.868.909-1.439t1.426-.572q.35,0,.5.122t.144.423q0,.135-.122.231t-.183.1q-.048,0-.184-.065t-.18-.061q-.216,0-.888.319t-.685.72q-.008.244.219.443t.823.487q.481.236.764.5t.272.631q-.022.669-.947,1.046t-1.755.376q-.7,0-.684-.481.006-.166.166-.244t.32-.078q.065,0,.245.044t.232.044q.48,0,1.034-.161T35.852,9.918Z" transform="translate(44.14 22.227)"/></g></g></g></svg>