<svg xmlns="http://www.w3.org/2000/svg" xmlns:xlink="http://www.w3.org/1999/xlink" width="23.727" height="26.603" viewBox="0 0 23.727 26.603"><defs><style>.a{fill:url(#a);}</style><linearGradient id="a" x1="0.5" y1="1.111" x2="0.5" y2="0.044" gradientUnits="objectBoundingBox"><stop offset="0" stop-color="#010354"/><stop offset="1" stop-color="#4badf4"/></linearGradient></defs><g transform="translate(-9.864 -5)"><path class="a" d="M33.291,15.678H31.5V14.161a.9.9,0,0,1,.542-.822v-.628a.865.865,0,0,1,0-1.582V10.6l.706-.2v.724a.866.866,0,0,1,0,1.582v.628a.9.9,0,0,1,.542.822Zm.3-6.743V8.488a.227.227,0,0,0-.166-.218L21.789,5.008a.227.227,0,0,0-.122,0L10.029,8.269a.227.227,0,0,0-.166.218v.447a.227.227,0,0,0,.166.218L14.7,10.462V10.28c0-2.557,5.378-2.755,7.026-2.755s7.025.2,7.025,2.755v.182l4.673-1.309A.227.227,0,0,0,33.591,8.934ZM14.675,16.163a1.437,1.437,0,0,1,.937-.479,4.486,4.486,0,0,1-.284-1.459,3.472,3.472,0,0,1,.165-.806V10.28c0-1.35,3.232-1.965,6.235-1.965s6.234.615,6.234,1.965v3.136a3.623,3.623,0,0,1,.165.808,4.525,4.525,0,0,1-.286,1.459,1.437,1.437,0,0,1,.939.48,2.369,2.369,0,0,1,.034,2.745,2.858,2.858,0,0,0-.214.628c-.138.532-.357,1.378-1.455,1.415-1.061,2.98-2.928,4.551-5.418,4.551s-4.357-1.571-5.418-4.551c-1.1-.037-1.317-.882-1.455-1.414a2.841,2.841,0,0,0-.214-.627A2.372,2.372,0,0,1,14.675,16.163Zm1.011,2.2a3.848,3.848,0,0,1,.313.883c.151.582.15.582.637.508a.592.592,0,0,1,.653.407c.872,2.764,2.365,4.165,4.438,4.165s3.566-1.4,4.438-4.165a.593.593,0,0,1,.653-.406c.488.075.487.074.638-.509a3.848,3.848,0,0,1,.313-.884c.38-.721.31-1.2.134-1.4a.147.147,0,0,0-.035-.026.54.54,0,0,0-.711.2,3.7,3.7,0,0,1-.62.748c.161-1.508.207-2.276-.062-2.791-.407-.775-1.423-1.963-1.8-1.775a8.122,8.122,0,0,1-3.807.805,4.368,4.368,0,0,0-3.637,1.29,2.589,2.589,0,0,0-.322,2.472,3.7,3.7,0,0,1-.62-.748.539.539,0,0,0-.709-.2.146.146,0,0,0-.034.026C15.376,17.15,15.305,17.634,15.686,18.358ZM11.1,31.118a.385.385,0,0,0,.374.484h20.5a.385.385,0,0,0,.374-.484A6.217,6.217,0,0,0,30.36,27.83a24.246,24.246,0,0,0-5.3-2.4s-2.568,4.35-3.333,4.35-3.333-4.35-3.333-4.35a24.246,24.246,0,0,0-5.3,2.4A6.217,6.217,0,0,0,11.1,31.118Z"/></g></svg>