<svg id="noun_quotes_1015801" xmlns="http://www.w3.org/2000/svg" width="24.439" height="20.498" viewBox="0 0 24.439 20.498">
  <path id="Path_41505" data-name="Path 41505" d="M13.749,20.461v-7.1A2.365,2.365,0,0,0,11.384,11H5.865A2.365,2.365,0,0,0,3.5,13.365V23.614A7.884,7.884,0,0,0,11.384,31.5a1.577,1.577,0,0,0,1.577-1.577,1.611,1.611,0,0,0-1.6-1.577,4.73,4.73,0,0,1-4.709-4.73v-.788h4.73A2.365,2.365,0,0,0,13.749,20.461Zm11.826,2.365h-4.73v.788a4.73,4.73,0,0,0,4.709,4.73,1.611,1.611,0,0,1,1.6,1.577A1.577,1.577,0,0,1,25.574,31.5a7.884,7.884,0,0,1-7.884-7.884V13.365A2.365,2.365,0,0,1,20.056,11h5.519a2.365,2.365,0,0,1,2.365,2.365v7.1A2.365,2.365,0,0,1,25.574,22.826Z" transform="translate(-3.5 -11)" fill="#0a0c42"/>
</svg>
